<svg width="21" height="8" viewBox="0 0 21 8" fill="none" xmlns="http://www.w3.org/2000/svg">
<path d="M0.837236 7.04462L2.20642 0.665019C1.78703 0.836243 1.46169 1.09308 1.23041 1.43552C0.999133 1.77797 0.883492 2.2045 0.883492 2.71511C0.883492 2.83436 0.88966 2.9322 0.901995 3.00864C0.917414 3.08202 0.932832 3.14164 0.948251 3.18751C0.96367 3.23031 0.977547 3.26395 0.989882 3.28841C1.0053 3.31287 1.01301 3.33427 1.01301 3.35261C0.849571 3.35261 0.704635 3.33733 0.578202 3.30675C0.451768 3.27312 0.345379 3.22114 0.259034 3.15082C0.175773 3.08049 0.111015 2.98724 0.0647586 2.87105C0.0215862 2.75486 0 2.61116 0 2.43993C0 2.23202 0.0447143 2.02716 0.134143 1.82536C0.226655 1.62356 0.351547 1.43247 0.508818 1.25207C0.669172 1.07167 0.855739 0.905038 1.06852 0.75216C1.28438 0.599282 1.51412 0.467807 1.75773 0.357735C2.00443 0.244605 2.26038 0.157464 2.52559 0.0963131C2.79387 0.0321044 3.06061 0 3.32582 0C3.39674 0 3.4615 0.00152878 3.52009 0.00458634C3.58177 0.0076439 3.64344 0.0122302 3.70512 0.0183454L2.19717 7.04462H0.837236Z" fill="white"/>
<path d="M8.96185 5.36143C8.82925 5.74668 8.68586 6.05397 8.53167 6.28329C8.38056 6.5126 8.22638 6.68841 8.06911 6.81072C7.91492 6.92996 7.76227 7.00793 7.61117 7.04462C7.46315 7.08131 7.32592 7.09965 7.19949 7.09965C6.9898 7.09965 6.81402 7.07061 6.67217 7.01251C6.53032 6.95136 6.41622 6.87187 6.32988 6.77402C6.24353 6.67313 6.18031 6.56 6.14023 6.43464C6.10322 6.30622 6.08472 6.17474 6.08472 6.04021C6.08472 5.88122 6.1063 5.69623 6.14948 5.48526C6.19573 5.27123 6.24507 5.05262 6.2975 4.82942C6.34992 4.60621 6.39772 4.39066 6.44089 4.18274C6.48715 3.97483 6.51027 3.79596 6.51027 3.64614C6.51027 3.3251 6.39618 3.16457 6.16798 3.16457C6.08163 3.16457 6.00146 3.18751 5.92745 3.23337C5.85344 3.27923 5.7856 3.34191 5.72392 3.42141C5.66225 3.49785 5.60674 3.58958 5.5574 3.69659C5.50806 3.80055 5.46489 3.91215 5.42788 4.03139L4.78492 7.04462H3.42036L4.42412 2.34821H5.78868L5.68692 2.83436C5.78868 2.72123 5.8889 2.63103 5.98758 2.56376C6.08934 2.49344 6.18802 2.43993 6.28362 2.40324C6.37922 2.36655 6.46864 2.34209 6.55191 2.32986C6.63825 2.31763 6.71843 2.31152 6.79244 2.31152C6.94354 2.31152 7.08385 2.33139 7.21337 2.37114C7.34289 2.41089 7.4539 2.47357 7.54641 2.55918C7.64201 2.64479 7.71602 2.75486 7.76844 2.88939C7.82087 3.02393 7.84708 3.18445 7.84708 3.37096C7.84708 3.49632 7.83474 3.63238 7.81007 3.77914C7.78849 3.92285 7.76073 4.07114 7.72681 4.22402C7.69289 4.37384 7.65589 4.52366 7.6158 4.67348C7.57879 4.8233 7.54333 4.96701 7.50941 5.1046C7.47549 5.24219 7.44619 5.3706 7.42152 5.48985C7.39993 5.60604 7.38914 5.70846 7.38914 5.79713C7.38914 5.91332 7.41535 6.00811 7.46778 6.08149C7.52328 6.15487 7.62351 6.19156 7.76844 6.19156C7.87021 6.19156 7.95963 6.17169 8.03673 6.13194C8.11382 6.09219 8.18321 6.03562 8.24488 5.96224C8.30655 5.88886 8.36206 5.80172 8.4114 5.70082C8.46383 5.59686 8.51471 5.48373 8.56405 5.36143H8.96185Z" fill="white"/>
<path d="M12.8633 5.36143C12.6166 5.64578 12.3683 5.88122 12.1186 6.06773C11.8719 6.25118 11.6375 6.40712 11.4155 6.53553C11.3168 6.63949 11.2058 6.72816 11.0824 6.80154C10.9622 6.87187 10.8357 6.92996 10.7031 6.97582C10.5736 7.01863 10.441 7.04921 10.3053 7.06755C10.1727 7.08895 10.0463 7.09965 9.92601 7.09965C9.68857 7.09965 9.48195 7.06449 9.30618 6.99417C9.13349 6.92079 8.9901 6.82753 8.876 6.7144C8.7619 6.59821 8.67864 6.4698 8.62622 6.32915C8.57071 6.18544 8.54295 6.04174 8.54295 5.89803C8.54295 5.78796 8.55837 5.68706 8.58921 5.59534C8.61696 5.50055 8.65397 5.41647 8.70023 5.34309C8.74648 5.26971 8.79891 5.20703 8.8575 5.15505C8.91917 5.10001 8.98239 5.0572 9.04715 5.02663C9.31235 4.55576 9.53592 4.09102 9.71786 3.63238C9.8998 3.17069 10.0648 2.70747 10.2128 2.24272L11.6144 2.05927C11.6329 2.46592 11.6498 2.81907 11.6652 3.11871C11.6837 3.41529 11.7007 3.67366 11.7161 3.8938C11.7315 4.11089 11.7454 4.29587 11.7578 4.44875C11.7701 4.60163 11.7809 4.73769 11.7901 4.85693C11.8025 4.97312 11.8102 5.08014 11.8133 5.17798C11.8194 5.27276 11.8225 5.37213 11.8225 5.47609C11.8225 5.54641 11.8194 5.61062 11.8133 5.66872C11.8102 5.72681 11.8009 5.78185 11.7855 5.83382C11.9243 5.75433 12.0492 5.67636 12.1602 5.59992C12.2743 5.52042 12.376 5.44093 12.4655 5.36143H12.8633ZM9.04715 5.70082C9.04715 5.92097 9.09032 6.08607 9.17666 6.19615C9.26609 6.30316 9.41565 6.35667 9.62535 6.35667C9.7302 6.35667 9.83196 6.34291 9.93064 6.31539C10.0293 6.28482 10.1172 6.23589 10.1943 6.16863C10.2714 6.0983 10.3331 6.00811 10.3793 5.89803C10.4256 5.78796 10.4487 5.65037 10.4487 5.48526C10.4487 5.40577 10.4456 5.32933 10.4395 5.25595C10.4364 5.17951 10.4317 5.10001 10.4256 5.01746C10.4194 4.93184 10.4102 4.83706 10.3978 4.7331C10.3886 4.62915 10.3762 4.50837 10.3608 4.37078C10.3485 4.23319 10.3346 4.0742 10.3192 3.8938C10.3038 3.71341 10.2868 3.50244 10.2683 3.26089C10.1727 3.56664 10.0602 3.86323 9.93064 4.15064C9.80112 4.43805 9.65773 4.7331 9.50046 5.0358C9.56213 5.06943 9.61301 5.11224 9.6531 5.16422C9.69627 5.2162 9.71786 5.28194 9.71786 5.36143C9.71786 5.41953 9.70861 5.47609 9.69011 5.53113C9.6716 5.58616 9.64385 5.63661 9.60685 5.68248C9.56984 5.72528 9.52513 5.76044 9.4727 5.78796C9.42336 5.81242 9.36631 5.82465 9.30156 5.82465C9.24913 5.82465 9.19979 5.81701 9.15354 5.80172C9.10728 5.78643 9.07182 5.7528 9.04715 5.70082Z" fill="white"/>
<path d="M15.6777 5.36143C15.5883 5.61521 15.488 5.83535 15.377 6.02186C15.2691 6.20838 15.155 6.36584 15.0347 6.49426C14.9175 6.62268 14.7957 6.72663 14.6693 6.80613C14.546 6.88563 14.4257 6.94678 14.3085 6.98958C14.1913 7.03239 14.0788 7.06144 13.9708 7.07672C13.866 7.09201 13.7719 7.09965 13.6887 7.09965C13.5468 7.09965 13.4142 7.07825 13.2909 7.03545C13.1675 6.99264 13.0596 6.92537 12.9671 6.83365C12.8776 6.74192 12.8067 6.62573 12.7543 6.48509C12.7019 6.34444 12.6757 6.17474 12.6757 5.976C12.6757 5.89039 12.6818 5.79713 12.6942 5.69623C12.7065 5.59228 12.725 5.48068 12.7497 5.36143L13.3186 2.72429H13.0041L13.0827 2.34821H13.3926L13.6794 1.05027L15.081 0.862232L14.7572 2.34821H15.3261L15.2521 2.72429H14.6832L14.0772 5.5403C14.0618 5.59228 14.051 5.64426 14.0448 5.69623C14.0418 5.74516 14.0402 5.79408 14.0402 5.843C14.0402 5.97447 14.0711 6.0662 14.1327 6.11818C14.1944 6.1671 14.2915 6.19156 14.4241 6.19156C14.5167 6.19156 14.6061 6.17169 14.6924 6.13194C14.7819 6.08913 14.8636 6.03104 14.9376 5.95766C15.0116 5.88427 15.0779 5.79713 15.1365 5.69623C15.1951 5.59228 15.2429 5.48068 15.2799 5.36143H15.6777Z" fill="white"/>
<path d="M19.4357 5.5403C19.4203 5.59228 19.4095 5.64426 19.4033 5.69623C19.3972 5.74516 19.3941 5.79408 19.3941 5.843C19.3941 5.97447 19.4249 6.0662 19.4866 6.11818C19.5514 6.1671 19.65 6.19156 19.7826 6.19156C19.8258 6.19156 19.8644 6.1885 19.8983 6.18239C19.9322 6.17627 19.963 6.16557 19.9908 6.15028C19.926 6.31233 19.8644 6.45298 19.8058 6.57223C19.7472 6.69147 19.6824 6.79084 19.6115 6.87034C19.5406 6.94678 19.4588 7.00487 19.3663 7.04462C19.2769 7.08131 19.1705 7.09965 19.0472 7.09965C18.7851 7.09965 18.5738 7.02474 18.4135 6.87492C18.2531 6.72205 18.1544 6.50649 18.1174 6.22825C18.0465 6.33526 17.9632 6.44075 17.8676 6.54471C17.7751 6.64866 17.6703 6.74192 17.5531 6.82447C17.439 6.90703 17.311 6.97429 17.1692 7.02627C17.0273 7.07519 16.8731 7.09965 16.7066 7.09965C16.5432 7.09965 16.3859 7.07367 16.2348 7.02169C16.0837 6.96971 15.9496 6.8841 15.8324 6.76485C15.7152 6.64561 15.6211 6.48967 15.5502 6.29705C15.4793 6.10442 15.4438 5.86899 15.4438 5.59075C15.4438 5.37672 15.4654 5.1474 15.5086 4.9028C15.5517 4.65819 15.618 4.41359 15.7075 4.16898C15.7969 3.92438 15.9079 3.69048 16.0405 3.46727C16.1762 3.24101 16.3335 3.04227 16.5123 2.87105C16.6943 2.69677 16.8993 2.55918 17.1275 2.45828C17.3557 2.35432 17.6071 2.30234 17.8815 2.30234C18.1498 2.30234 18.3441 2.34821 18.4643 2.43993C18.5877 2.53166 18.6494 2.64479 18.6494 2.77932V2.84812L18.7511 2.34821H20.1157L19.4357 5.5403ZM18.5615 3.24254C18.5615 3.21502 18.5553 3.18139 18.543 3.14164C18.5306 3.09884 18.5091 3.05909 18.4782 3.0224C18.4505 2.98265 18.4119 2.95055 18.3626 2.92609C18.3132 2.89857 18.25 2.88481 18.1729 2.88481C18.0403 2.88481 17.9139 2.92761 17.7936 3.01323C17.6764 3.09884 17.5685 3.2135 17.4698 3.3572C17.3712 3.49785 17.2833 3.65837 17.2062 3.83877C17.1291 4.01916 17.0628 4.20567 17.0073 4.3983C16.9549 4.58787 16.9148 4.77591 16.887 4.96242C16.8593 5.14587 16.8454 5.31098 16.8454 5.45774C16.8454 5.63814 16.8623 5.77726 16.8963 5.8751C16.9302 5.97294 16.9703 6.04633 17.0165 6.09525C17.0659 6.14111 17.1183 6.16863 17.1738 6.1778C17.2293 6.18697 17.2786 6.19156 17.3218 6.19156C17.3927 6.19156 17.4668 6.17474 17.5438 6.14111C17.624 6.10442 17.6996 6.05244 17.7705 5.98517C17.8445 5.91485 17.9108 5.82771 17.9694 5.72375C18.0311 5.6198 18.0773 5.49902 18.1082 5.36143L18.5615 3.24254Z" fill="white"/>
</svg>
