<?xml version="1.0" ?><!DOCTYPE svg  PUBLIC '-//W3C//DTD SVG 1.1//EN'  'http://www.w3.org/Graphics/SVG/1.1/DTD/svg11.dtd'><svg enable-background="new 0 0 512 512" height="512px" id="Слой_1" version="1.1" viewBox="0 0 512 512" width="512px" xml:space="preserve" xmlns="http://www.w3.org/2000/svg" xmlns:xlink="http://www.w3.org/1999/xlink"><path d="M280.8,402.065c12.967,0,18.297-8.643,18.123-19.469c-0.656-40.844,15.234-62.83,43.938-34.189  c31.75,31.719,38.313,53.658,76.875,53.658c14.637,0,54.029,0,68.248,0c53.703,0,5.844-53.814-31.984-88.875  c-35.971-33.346-37.672-34.143-6.688-74.26c38.453-49.812,88.734-113.999,44.252-113.999c-8.705,0-2.486,0-84.924,0  c-16.484,0-17.688,9.608-23.529,23.438c-21.219,49.953-61.561,114.735-76.891,104.843c-16.047-10.344-8.705-45.437-7.469-106.233  c0.33-16.063,0.234-27.109-24.328-32.798c-67.124-15.563-125.296,15.032-101.532,19.438c33.5,6.251,30.283,72.845,22.484,104.109  c-13.608,54.445-64.764-43.093-86.091-91.687c-5.142-11.688-6.704-21.109-25.079-21.109c-10.062,0-54.501,0-69.437,0  c-13.376,0-19.937,6.125-15.264,18.547c4.67,12.405,58.405,132.429,121.937,200.897C182.236,407.751,240.359,402.065,280.8,402.065z  " id="V_kontakte_1_"/></svg>