<svg width="109" height="35" viewBox="0 0 109 35" fill="none" xmlns="http://www.w3.org/2000/svg">
<g clip-path="url(#clip0_397_32121)">
<path d="M103.134 12.8915H108.094C107.467 8.06392 103.941 5.52637 99.0408 5.52637C94.0809 5.52637 90.7642 8.15681 90.7642 12.6749C90.7642 17.812 95.037 18.9569 97.3078 19.4212C100.236 20.0092 103.105 20.0711 103.105 22.6704C103.105 24.4344 101.67 25.3009 99.6385 25.3009C97.1286 25.3009 95.4554 24.0011 95.037 21.6494H90.1367C90.4354 26.7245 93.9913 29.4477 99.2203 29.4477C104.061 29.4477 108.035 27.1577 108.035 22.2063C108.035 16.8835 103.463 15.9243 100.266 15.4291C98.0847 15.0887 95.6943 14.7792 95.6943 12.3964C95.6943 10.7253 96.9194 9.70414 98.9811 9.70414C101.372 9.70414 102.806 11.0968 103.134 12.8915Z" fill="#403F41"/>
<path d="M87.4178 6.2998H82.7266V28.7356H87.4178V6.2998Z" fill="#403F41"/>
<path d="M68.5628 20.9065H74.6882C73.732 23.3205 71.5806 24.4653 69.1006 24.4653C64.7382 24.4653 62.7064 20.9685 62.7064 17.5025C62.7064 14.0055 64.6186 10.4468 69.0708 10.4468C71.7899 10.4468 73.8215 11.7465 74.5985 14.0675L79.6481 14.0675C78.7817 8.83771 74.3595 5.83594 69.1306 5.83594C62.6765 5.83594 57.8359 10.3849 57.8359 17.5644C57.8359 24.8367 63.0947 29.1382 69.1006 29.1382C75.0168 29.1382 79.6481 25.1462 79.6481 18.8951V17.0692H68.5628V20.9065Z" fill="#403F41"/>
<path d="M47.1078 5.83594C41.7295 5.83594 37.7554 9.33275 37.7853 15.1506H42.6259C42.5661 12.6131 44.1198 10.2921 46.8688 10.2921C49.2592 10.2921 50.6635 12.0251 50.6635 14.0056C50.6635 15.9861 49.2592 17.1002 46.6596 18.3072C43.1039 19.9473 40.5642 20.9994 37.9646 21.9279V28.7359H56.0718V24.1559H43.641C43.641 24.1559 43.6824 24.1425 43.7028 24.1361C45.8171 23.4726 47.4055 22.7517 49.2891 21.8969C53.3228 20.0402 55.6236 17.7191 55.6236 13.7581C55.6236 8.89948 52.1576 5.83594 47.1078 5.83594Z" fill="#403F41"/>
<path d="M25.0574 20.8444C18.9619 20.8753 17.9759 24.6817 17.6473 27.9L17.4979 29.3235H16.2727L16.1234 27.9C15.7947 24.6817 14.7788 20.8753 8.89245 20.8444C7.90644 18.7399 7.48812 17.0379 7.48812 15.1193C7.48812 10.3227 11.2829 5.83543 16.9002 5.83543C22.5176 5.83543 26.2526 10.2916 26.2526 15.1504C26.2526 17.0379 26.0734 18.7399 25.0574 20.8444ZM16.8405 0.0175781C7.57784 0.0175781 -0.0117188 7.87794 -0.0117188 17.502C-0.0117188 27.1573 7.57784 35.0175 16.8405 35.0175C26.1928 35.0175 33.7525 27.1573 33.7525 17.502C33.7525 7.87796 26.1928 0.0175781 16.8405 0.0175781Z" fill="#29B24A"/>
</g>
<defs>
<clipPath id="clip0_397_32121">
<rect width="108.105" height="35" fill="white"/>
</clipPath>
</defs>
</svg>
