<svg width="190" height="17" viewBox="0 0 190 17" fill="none" xmlns="http://www.w3.org/2000/svg">
<mask id="mask0_397_32104" style="mask-type:luminance" maskUnits="userSpaceOnUse" x="0" y="0" width="190" height="17">
<path d="M190 0H0V16.8077H190V0Z" fill="white"/>
</mask>
<g mask="url(#mask0_397_32104)">
<path fill-rule="evenodd" clip-rule="evenodd" d="M8.12666 0.122074C8.16013 0.122075 8.19374 0.122077 8.2275 0.122077C8.26119 0.122077 8.29488 0.122075 8.32828 0.122074C9.72602 0.122001 10.9251 0.121939 11.8843 0.248068C12.9103 0.382974 13.8864 0.686243 14.6772 1.4597C15.468 2.23316 15.7781 3.18781 15.916 4.19124C16.0449 5.12936 16.0449 6.30217 16.0448 7.66917V15.0693C16.0448 15.8912 15.3636 16.5574 14.5233 16.5574C13.683 16.5574 13.0018 15.8912 13.0018 15.0693V7.76782C13.0018 6.27441 12.9986 5.30401 12.9002 4.58781C12.8075 3.91442 12.6566 3.6925 12.5254 3.56419C12.3943 3.43588 12.1674 3.28827 11.4788 3.19773C10.7466 3.10144 9.75445 3.09828 8.2275 3.09828C6.70055 3.09828 5.7084 3.10144 4.9761 3.19773C4.2876 3.28827 4.0607 3.43588 3.92952 3.56419C3.79833 3.6925 3.6474 3.91442 3.55483 4.58781C3.45638 5.30401 3.45315 6.27441 3.45315 7.76782V15.0693C3.45315 15.8912 2.77195 16.5574 1.93166 16.5574C1.09136 16.5574 0.410163 15.8912 0.410163 15.0693V7.76782C0.410163 7.73487 0.410161 7.70198 0.41016 7.66917C0.410086 6.30217 0.410023 5.12936 0.538983 4.19124C0.676915 3.18781 0.986991 2.23316 1.7778 1.4597C2.56862 0.686243 3.54469 0.382974 4.57063 0.248068C5.52981 0.121939 6.72895 0.122001 8.12666 0.122074Z" fill="#EC2327"/>
<path fill-rule="evenodd" clip-rule="evenodd" d="M18.5547 2.75461C18.5547 1.36596 19.7057 0.240234 21.1255 0.240234H28.4706C31.0495 0.240234 33.14 2.28492 33.14 4.80717V6.48466C33.14 9.00692 31.0495 11.0516 28.4706 11.0516H21.5977V15.0699C21.5977 15.8918 20.9165 16.558 20.0762 16.558C19.2359 16.558 18.5547 15.8918 18.5547 15.0699V2.75461ZM21.5977 8.07541H28.4706C29.3688 8.07541 30.097 7.3632 30.097 6.48466V4.80717C30.097 3.92863 29.3688 3.21644 28.4706 3.21644H21.5977V8.07541Z" fill="#EC2327"/>
<path fill-rule="evenodd" clip-rule="evenodd" d="M140.043 2.71946C140.043 1.33081 141.194 0.205078 142.614 0.205078H149.959C152.538 0.205078 154.628 2.24976 154.628 4.77201V6.44951C154.628 8.97173 152.538 11.0164 149.959 11.0164H143.086V15.0348C143.086 15.8566 142.405 16.5228 141.564 16.5228C140.724 16.5228 140.043 15.8566 140.043 15.0348V2.71946ZM143.086 8.04029H149.959C150.857 8.04029 151.585 7.32808 151.585 6.44951V4.77201C151.585 3.89348 150.857 3.18128 149.959 3.18128H143.086V8.04029Z" fill="#0070C0"/>
<path fill-rule="evenodd" clip-rule="evenodd" d="M177.644 0.270542L177.572 0.270525C177.141 0.270368 176.679 0.2702 176.29 0.321385C175.835 0.381145 175.26 0.534117 174.776 1.00699C174.293 1.47986 174.137 2.04232 174.075 2.48681C174.023 2.86752 174.023 3.31949 174.023 3.74173V3.81119V7.84049C174.023 7.84386 174.023 7.84729 174.023 7.85073C174.023 7.85358 174.023 7.8565 174.023 7.85935V15.0346C174.023 15.8565 174.705 16.5228 175.545 16.5228C175.623 16.5228 175.701 16.5169 175.776 16.5057C175.851 16.5169 175.928 16.5228 176.007 16.5228H184.464H184.551C184.952 16.523 185.292 16.5232 185.598 16.4837C187.694 16.2139 189.343 14.6013 189.618 12.552C189.659 12.2522 189.658 11.9197 189.658 11.5276V11.4427V11.3579C189.658 10.9658 189.659 10.6333 189.618 10.3335C189.47 9.23144 188.925 8.25572 188.127 7.54716C188.756 6.79981 189.134 5.84242 189.134 4.77188C189.134 2.24964 187.043 0.270542 184.464 0.270542H177.644ZM177.066 9.20513V13.5466H184.464C185 13.5466 185.12 13.5433 185.201 13.533C185.931 13.439 186.505 12.8773 186.601 12.1634C186.612 12.0844 186.615 11.9666 186.615 11.4427C186.615 10.9188 186.612 10.801 186.601 10.722C186.505 10.0081 185.931 9.3127 185.201 9.21873C185.12 9.20827 185 9.20513 184.464 9.20513H177.066ZM184.464 6.36259H177.066V3.81119C177.066 3.58414 177.066 3.40442 177.069 3.25003C177.228 3.24683 177.412 3.24675 177.644 3.24675H184.464C185.362 3.24675 186.091 3.89335 186.091 4.77188C186.091 5.65044 185.362 6.36259 184.464 6.36259Z" fill="#0070C0"/>
<path fill-rule="evenodd" clip-rule="evenodd" d="M79.4127 0.187502C79.4426 0.187503 79.4719 0.187505 79.5011 0.187505C79.5311 0.187505 79.561 0.187503 79.5903 0.187502C80.8275 0.187452 81.8893 0.187408 82.7501 0.277424C83.6643 0.373004 84.55 0.585763 85.3319 1.14212C85.6776 1.38789 85.9867 1.67457 86.252 1.99486C86.8512 2.71992 87.0807 3.54173 87.1837 4.38954C87.2809 5.18801 87.2809 6.17285 87.2809 7.32015V9.56076C87.2809 10.708 87.2809 11.6929 87.1837 12.4913C87.0807 13.3391 86.8512 14.161 86.252 14.886C85.9867 15.2063 85.6776 15.493 85.3319 15.7387C84.55 16.2951 83.6643 16.5078 82.7501 16.6034C81.8893 16.6934 80.8275 16.6934 79.5903 16.6934H79.4127C78.1762 16.6934 77.1144 16.6934 76.2536 16.6034C75.3394 16.5078 74.453 16.2951 73.671 15.7387C73.3261 15.493 73.0169 15.2063 72.7517 14.886C72.1518 14.161 71.9222 13.3391 71.8193 12.4913C71.7227 11.6929 71.7227 10.7079 71.7227 9.56069V7.40229C71.7227 7.37481 71.7227 7.34741 71.7227 7.32015C71.7227 6.17285 71.7227 5.18802 71.8193 4.38954C71.9222 3.54173 72.1518 2.71992 72.7517 1.99486C73.0169 1.67457 73.3261 1.38789 73.671 1.14212C74.453 0.585763 75.3394 0.373004 76.2536 0.277424C77.1144 0.187408 78.1762 0.187452 79.4127 0.187502ZM76.4041 3.26898C75.7793 3.33428 75.5571 3.44331 75.4344 3.53051C75.3145 3.61611 75.2064 3.71597 75.1143 3.82753C75.0208 3.94117 74.9031 4.14746 74.8322 4.72679C74.7584 5.33646 74.7555 6.14986 74.7555 7.40229V9.47855C74.7555 10.731 74.7584 11.5444 74.8322 12.154C74.9031 12.7334 75.0208 12.9397 75.1143 13.0533C75.2064 13.1649 75.3145 13.2647 75.4344 13.3503C75.5571 13.4375 75.7793 13.5465 76.4041 13.6119C77.0611 13.6806 78.1514 13.6829 79.5011 13.6829C80.8523 13.6829 82.0267 13.6806 82.6836 13.6119C83.3084 13.5465 83.5313 13.4375 83.6533 13.3503C83.7739 13.2647 83.8813 13.1649 83.9742 13.0533C84.0677 12.9397 84.1853 12.7334 84.2555 12.154C84.33 11.5444 84.3322 10.731 84.3322 9.47855V7.40229C84.3322 6.14986 84.33 5.33646 84.2555 4.72679C84.1853 4.14746 84.0677 3.94117 83.9742 3.82753C83.8813 3.71597 83.7739 3.61611 83.6533 3.53051C83.5313 3.44331 83.3084 3.33428 82.6836 3.26898C82.0267 3.20024 80.8523 3.198 79.5011 3.198C78.1514 3.198 77.0611 3.20024 76.4041 3.26898Z" fill="#0070C0"/>
<path fill-rule="evenodd" clip-rule="evenodd" d="M42.7765 0.187502C42.8059 0.187503 42.8355 0.187505 42.8651 0.187505C42.8947 0.187505 42.9242 0.187503 42.9537 0.187502C44.1907 0.187452 45.2526 0.187408 46.1135 0.277424C47.0277 0.373004 47.9137 0.585763 48.6955 1.14212C49.0409 1.38789 49.35 1.67457 49.6149 1.99486C50.2148 2.71992 50.4442 3.54173 50.5473 4.38954C50.6443 5.18801 50.6443 6.17285 50.6442 7.32015V9.56076C50.6443 10.708 50.6443 11.6929 50.5473 12.4913C50.4442 13.3391 50.2148 14.161 49.6149 14.886C49.35 15.2063 49.0409 15.493 48.6955 15.7387C47.9137 16.2951 47.0277 16.5078 46.1135 16.6034C45.2526 16.6934 44.1907 16.6934 42.9537 16.6934H42.7766C41.5395 16.6934 40.4776 16.6934 39.6166 16.6034C38.7025 16.5078 37.8165 16.2951 37.0347 15.7387C36.6893 15.493 36.3802 15.2063 36.1152 14.886C35.5153 14.161 35.286 13.3391 35.1829 12.4913C35.0859 11.6929 35.0859 10.7079 35.0859 9.56069V7.40229C35.0859 7.37481 35.0859 7.34741 35.0859 7.32015C35.0859 6.17285 35.0859 5.18802 35.1829 4.38954C35.286 3.54173 35.5153 2.71992 36.1152 1.99486C36.3802 1.67457 36.6893 1.38789 37.0347 1.14212C37.8165 0.585763 38.7025 0.373004 39.6166 0.277424C40.4776 0.187408 41.5395 0.187452 42.7765 0.187502ZM39.7677 3.26898C39.143 3.33428 38.9206 3.44331 38.798 3.53051C38.6778 3.61611 38.5701 3.71597 38.4778 3.82753C38.3838 3.94117 38.2662 4.14746 38.1958 4.72679C38.1217 5.33646 38.1193 6.14986 38.1193 7.40229V9.47855C38.1193 10.731 38.1217 11.5444 38.1958 12.154C38.2662 12.7334 38.3838 12.9397 38.4778 13.0533C38.5701 13.1649 38.6778 13.2647 38.798 13.3503C38.9206 13.4375 39.143 13.5465 39.7677 13.6119C40.425 13.6806 41.5146 13.6829 42.8651 13.6829C44.2156 13.6829 45.3899 13.6806 46.0473 13.6119C46.6719 13.5465 46.8943 13.4375 47.0168 13.3503C47.1371 13.2647 47.2448 13.1649 47.3371 13.0533C47.4311 12.9397 47.5487 12.7334 47.6191 12.154C47.6932 11.5444 47.6956 10.731 47.6956 9.47855V7.40229C47.6956 6.14986 47.6932 5.33646 47.6191 4.72679C47.5487 4.14746 47.4311 3.94117 47.3371 3.82753C47.2448 3.71597 47.1371 3.61611 47.0168 3.53051C46.8943 3.44331 46.6719 3.33428 46.0473 3.26898C45.3899 3.20024 44.2156 3.198 42.8651 3.198C41.5146 3.198 40.425 3.20024 39.7677 3.26898Z" fill="#EC2327"/>
<path fill-rule="evenodd" clip-rule="evenodd" d="M130.026 0.193362C130.056 0.193364 130.085 0.193365 130.114 0.193365C130.144 0.193365 130.173 0.193364 130.203 0.193362C131.44 0.193311 132.502 0.193268 133.363 0.283285C134.277 0.378864 135.163 0.591618 135.945 1.14798C136.291 1.39375 136.6 1.68043 136.864 2.00072C137.464 2.72578 137.694 3.54758 137.797 4.3954C137.894 5.19387 137.894 6.1787 137.894 7.32594V9.56662C137.894 10.7139 137.894 11.6986 137.797 12.4972C137.694 13.345 137.464 14.1668 136.864 14.8919C136.6 15.2121 136.291 15.4989 135.945 15.7446C135.163 16.301 134.277 16.5137 133.363 16.6093C132.502 16.6993 131.44 16.6992 130.203 16.6992H130.026C128.789 16.6992 127.727 16.6993 126.866 16.6093C125.952 16.5137 125.066 16.301 124.284 15.7446C123.939 15.4989 123.63 15.2121 123.365 14.8919C122.765 14.1668 122.535 13.345 122.432 12.4972C122.336 11.6986 122.336 10.7139 122.336 9.56662V7.40815C122.336 7.38074 122.336 7.35327 122.336 7.32601C122.336 6.17875 122.336 5.19388 122.432 4.3954C122.535 3.54758 122.765 2.72578 123.365 2.00072C123.63 1.68043 123.939 1.39375 124.284 1.14798C125.066 0.591618 125.952 0.378864 126.866 0.283285C127.727 0.193268 128.789 0.193311 130.026 0.193362ZM127.017 3.27484C126.392 3.34015 126.17 3.44917 126.048 3.53637C125.928 3.62197 125.82 3.72183 125.727 3.83339C125.633 3.94703 125.516 4.15332 125.445 4.73266C125.372 5.34232 125.369 6.15571 125.369 7.40815V9.48441C125.369 10.7369 125.372 11.5502 125.445 12.1599C125.516 12.7393 125.633 12.9456 125.727 13.0592C125.82 13.1708 125.928 13.2706 126.048 13.3562C126.17 13.4434 126.392 13.5524 127.017 13.6177C127.674 13.6865 128.764 13.6887 130.114 13.6887C131.465 13.6887 132.639 13.6865 133.297 13.6177C133.922 13.5524 134.144 13.4434 134.266 13.3562C134.387 13.2706 134.494 13.1708 134.587 13.0592C134.681 12.9456 134.798 12.7393 134.869 12.1599C134.943 11.5502 134.945 10.7369 134.945 9.48441V7.40815C134.945 6.15571 134.943 5.34232 134.869 4.73266C134.798 4.15332 134.681 3.94703 134.587 3.83339C134.494 3.72183 134.387 3.62197 134.266 3.53637C134.144 3.44917 133.922 3.34015 133.297 3.27484C132.639 3.2061 131.465 3.20386 130.114 3.20386C128.764 3.20386 127.674 3.2061 127.017 3.27484Z" fill="#0070C0"/>
<path fill-rule="evenodd" clip-rule="evenodd" d="M164.116 0.196291C164.146 0.196292 164.175 0.196293 164.205 0.196293C164.234 0.196293 164.263 0.196292 164.293 0.196291C165.53 0.196241 166.592 0.196196 167.453 0.286213C168.367 0.381793 169.253 0.594549 170.035 1.15091C170.381 1.39667 170.689 1.68336 170.954 2.00364C171.554 2.72871 171.784 3.55051 171.887 4.39833C171.984 5.1968 171.984 6.18162 171.984 7.32887V9.56955C171.984 10.7168 171.984 11.7016 171.887 12.5002C171.784 13.3479 171.554 14.1697 170.954 14.8948C170.689 15.215 170.381 15.5018 170.035 15.7475C169.253 16.3039 168.367 16.5166 167.453 16.6122C166.592 16.7022 165.53 16.7022 164.293 16.7022H164.116C162.879 16.7022 161.817 16.7022 160.956 16.6122C160.042 16.5166 159.156 16.3039 158.374 15.7475C158.028 15.5018 157.72 15.215 157.455 14.8948C156.855 14.1697 156.625 13.3479 156.522 12.5002C156.426 11.7016 156.426 10.7168 156.426 9.56955V7.41115C156.426 7.38367 156.426 7.3562 156.426 7.32894C156.426 6.18168 156.426 5.19681 156.522 4.39833C156.625 3.55051 156.855 2.72871 157.455 2.00364C157.72 1.68336 158.028 1.39667 158.374 1.15091C159.156 0.594549 160.042 0.381793 160.956 0.286213C161.817 0.196196 162.879 0.196241 164.116 0.196291ZM161.107 3.27776C160.483 3.34308 160.26 3.4521 160.137 3.5393C160.018 3.6249 159.909 3.72476 159.817 3.83632C159.723 3.94996 159.606 4.15625 159.535 4.73558C159.461 5.34525 159.458 6.15864 159.458 7.41115V9.48734C159.458 10.7398 159.461 11.5532 159.535 12.1628C159.606 12.7422 159.723 12.9485 159.817 13.0621C159.909 13.1737 160.018 13.2735 160.137 13.3591C160.26 13.4464 160.483 13.5554 161.107 13.6206C161.765 13.6894 162.854 13.6916 164.205 13.6916C165.555 13.6916 166.729 13.6894 167.387 13.6206C168.011 13.5554 168.234 13.4464 168.356 13.3591C168.477 13.2735 168.584 13.1737 168.676 13.0621C168.771 12.9485 168.888 12.7422 168.958 12.1628C169.033 11.5532 169.034 10.7398 169.034 9.48734V7.41115C169.034 6.15864 169.033 5.34525 168.958 4.73558C168.888 4.15625 168.771 3.94996 168.676 3.83632C168.584 3.72476 168.477 3.6249 168.356 3.5393C168.234 3.4521 168.011 3.34308 167.387 3.27776C166.729 3.20903 165.555 3.20679 164.205 3.20679C162.854 3.20679 161.765 3.20903 161.107 3.27776Z" fill="#0070C0"/>
<path fill-rule="evenodd" clip-rule="evenodd" d="M66.0359 13.6533L61.335 3.43504L56.6522 13.6533H66.0359ZM69.1944 13.6533L63.4202 1.17827C62.8342 -0.0136836 59.8225 -0.0239371 59.2434 1.17682L53.4756 13.6533H53.17C52.3296 13.6533 51.6484 14.2945 51.6484 15.0856C51.6484 15.8766 52.3296 16.5179 53.17 16.5179H69.5007C70.3408 16.5179 71.0223 15.8766 71.0223 15.0856C71.0223 14.2945 70.3408 13.6533 69.5007 13.6533H69.1944Z" fill="#0070C0"/>
<path fill-rule="evenodd" clip-rule="evenodd" d="M103.523 2.92711L95.7944 8.37674L103.953 13.7735C104.649 14.2339 104.832 15.159 104.361 15.8398C103.891 16.5207 102.945 16.6993 102.249 16.2389L93.5041 10.4551C93.1219 10.202 92.8362 9.87343 92.6477 9.50768V15.033C92.6477 15.8549 91.9666 16.5211 91.1262 16.5211C90.2858 16.5211 89.6055 15.8549 89.6055 15.033V1.6914C89.6055 0.869544 90.2858 0.203294 91.1262 0.203294C91.9666 0.203294 92.6477 0.869544 92.6477 1.6914V7.23699C92.8399 6.86353 93.1336 6.52905 93.5275 6.27445L101.844 0.443952C102.546 -0.0090991 103.49 0.179504 103.953 0.86521C104.416 1.55091 104.223 2.47406 103.523 2.92711Z" fill="#0070C0"/>
<path fill-rule="evenodd" clip-rule="evenodd" d="M105.801 1.69416C105.801 0.872299 106.482 0.206055 107.322 0.206055H119.914C120.754 0.206055 121.436 0.872299 121.436 1.69416C121.436 2.51601 120.754 3.18225 119.914 3.18225H107.322C106.482 3.18225 105.801 2.51601 105.801 1.69416Z" fill="#0070C0"/>
<path fill-rule="evenodd" clip-rule="evenodd" d="M113.62 0.283447C114.46 0.283447 115.141 0.949692 115.141 1.77154V15.1131C115.141 15.9349 114.46 16.6013 113.62 16.6013C112.779 16.6013 112.098 15.9349 112.098 15.1131V1.77154C112.098 0.949692 112.779 0.283447 113.62 0.283447Z" fill="#0070C0"/>
</g>
</svg>
