<svg width="107" height="36" viewBox="0 0 107 36" fill="none" xmlns="http://www.w3.org/2000/svg">
<path d="M75.3557 23.2193C77.4567 22.6062 78.6881 20.8002 78.6881 18.3317C78.6881 16.8181 78.276 15.6274 77.4442 14.7378C75.0193 12.144 70.8999 13.2649 69.873 16.798C69.4522 18.2457 69.4528 18.3562 69.8921 19.9362C70.2853 21.3507 71.5279 22.8162 72.5146 23.0292C72.8073 23.0924 73.2384 23.2266 73.4726 23.3274C74.065 23.5824 74.1227 23.5791 75.3557 23.2193ZM71.5445 34.6428C69.3371 33.9217 67.3418 32.2221 66.2961 30.1723C65.996 29.5842 66.1473 29.4626 68.1233 28.7035C69.5148 28.169 69.96 28.1097 69.96 28.4589C69.96 28.9658 71.284 30.3275 72.1919 30.7543C74.008 31.608 76.3963 31.096 77.5297 29.6098C78.0527 28.9242 78.5185 27.1005 78.4334 26.0722L78.3882 25.5258L77.527 26.1262C76.3018 26.9803 74.2762 27.356 72.621 27.0361C70.6409 26.6533 69.387 25.9938 68.0589 24.6364C66.6564 23.2029 66.0526 22.0416 65.6128 19.9322C64.7319 15.7068 67.4132 11.1858 71.5966 9.84251C73.7221 9.16005 76.7022 9.59949 77.9595 10.7808L78.4427 11.2348L78.5122 10.6275L78.5817 10.0202H80.4976H82.4135L82.4757 18.5363C82.541 27.4837 82.4438 28.7068 81.5156 30.6098C80.5966 32.494 78.8145 33.9779 76.6258 34.6813C75.2438 35.1255 72.9691 35.1082 71.5445 34.6428Z" fill="#4286F5"/>
<path d="M38.9365 22.5405C40.5845 21.3985 41.3889 18.9162 40.8076 16.767C40.323 14.9759 38.2621 13.3198 36.5177 13.3198C33.704 13.3198 31.6572 15.3968 31.6462 18.2632C31.6374 20.5481 33.0519 22.6555 34.9167 23.1357C36.1261 23.4472 38.0364 23.1643 38.9365 22.5405ZM34.6681 27.0265C31.2966 26.4256 28.8507 24.2252 27.6986 20.7564C27.1664 19.1541 27.3437 16.379 28.0787 14.8072C29.661 11.4236 32.6706 9.48136 36.313 9.49322C43.2533 9.5158 47.3588 16.5635 44.0977 22.8571C43.1652 24.6568 40.5024 26.5759 38.4016 26.9623C36.5222 27.3079 36.2713 27.3123 34.6681 27.0265Z" fill="#EA4235"/>
<path d="M94.8604 17.5084C95.6465 17.1587 95.3562 17.2537 95.4944 17.2499C95.6326 17.2462 96.5186 16.8646 97.2775 16.5133C98.0364 16.1621 98.8094 15.8747 98.9954 15.8747C99.1814 15.8747 98.0866 16.3461 98.0866 16.2533C98.0866 16.1604 99.861 15.3578 100.506 15.1387C101.645 14.7514 101.667 14.7287 101.304 14.3277C100.232 13.1427 98.0643 12.9065 96.6214 13.8174C95.4516 14.5558 94.5187 15.8097 94.3385 16.8858C94.1768 17.8513 94.0991 17.8471 94.8604 17.5084ZM97.0983 27.0233C93.7325 26.2334 91.526 24.108 90.4088 20.5795C90.106 19.623 90.1161 16.8462 90.4259 15.8898C91.7314 11.8597 94.6978 9.48828 98.4336 9.48828C100.567 9.48828 102.329 10.2126 103.859 11.7187C104.953 12.7956 106.359 15.1495 106.359 15.9053C106.359 16.3942 106.104 16.5418 103.485 17.5703C101.378 18.3974 100.362 18.814 98.6949 19.5337C98.4021 19.6601 97.9711 19.8412 97.7369 19.9362C97.5027 20.0313 96.8801 20.2934 96.3532 20.5189C95.8263 20.7443 95.2611 20.9698 95.0972 21.0201C94.5855 21.177 96.3459 22.8212 97.3111 23.0878C99.2081 23.6119 100.877 23.2514 102.2 22.032C102.699 21.5726 103.204 21.1967 103.324 21.1967C103.685 21.1967 106.351 22.9889 106.355 23.2341C106.362 23.6872 104.493 25.3948 103.258 26.0638C102.125 26.6774 99.5278 27.4075 98.6949 27.3464C98.5192 27.3335 97.8008 27.1881 97.0983 27.0233Z" fill="#EA4235"/>
<path d="M11.0968 26.936C8.49865 26.5207 5.99077 25.1453 3.79746 22.9327C2.25788 21.3796 1.24571 19.7385 0.397422 17.4198C-0.141925 15.9456 -0.129467 11.0862 0.417483 9.59474C2.1467 4.8795 5.45692 1.71563 10.1389 0.303116C11.6266 -0.145716 16.357 -0.0827586 17.6961 0.403694C19.7263 1.1412 22.2119 2.57735 22.9063 3.41412C23.1607 3.7207 23.031 3.92928 21.8358 5.13531C21.0878 5.89009 20.4252 6.50753 20.3632 6.50739C20.3013 6.50725 19.9721 6.26752 19.6316 5.97467C17.8678 4.45766 14.4766 3.65535 11.9076 4.1473C8.98209 4.70753 6.55574 6.56034 5.19266 9.27495C4.51047 10.6336 4.06748 10.7126 4.06748 13.5334C4.06748 16.2134 4.53653 16.4908 5.07418 17.6384C5.39131 18.3153 6.19679 19.4417 6.86412 20.1414C9.29933 22.6947 12.8588 23.6992 16.2639 22.794C18.1743 22.2862 18.9927 21.8492 20.1851 20.7006C21.2278 19.6962 21.9073 18.4515 22.1485 17.104L22.2906 16.3101L17.971 16.2524L13.6514 16.1947V14.2067V12.2187L19.8249 12.2364C23.2203 12.2461 26.057 12.2545 26.1287 12.2551C26.2003 12.2557 26.362 12.7693 26.488 13.3966C26.9622 15.7581 26.092 19.335 24.422 21.8884C23.0466 23.9915 21.5744 25.1265 18.4412 26.4994C17.1417 27.0688 13.3413 27.2947 11.0968 26.936Z" fill="#4185F4"/>
<path d="M56.8248 23.0804C57.8154 22.8323 59.1443 21.5846 59.6314 20.4454C59.8266 19.989 60.1405 19.1105 60.0941 18.2328C60.0279 16.9795 59.7616 16.0886 59.4991 15.7707C58.3901 14.4274 57.8093 13.9349 56.9957 13.6479C55.1735 13.0049 53.4777 13.3567 52.1065 14.6619C49.4256 17.2139 50.4541 21.9518 53.9456 23.1341C54.9462 23.4729 55.283 23.4666 56.8248 23.0804ZM53.1519 26.9395C50.8914 26.4626 48.5301 24.6647 47.4592 22.605C45.6748 19.1732 46.1282 15.1937 48.6175 12.4383C52.1689 8.50732 58.4295 8.50909 62.0473 12.4421C65.1598 15.8259 64.8371 21.9682 61.3919 24.9175C59.7497 26.3232 58.151 26.9564 55.998 27.0536C54.9537 27.1008 53.673 27.0495 53.1519 26.9395Z" fill="#FABC05"/>
<path d="M84.6484 13.7466V0.744141L86.724 0.80508L88.7996 0.866009V13.7466V26.6273L86.724 26.6882L84.6484 26.7491V13.7466Z" fill="#34A853"/>
</svg>
