<svg width="36" height="35" viewBox="0 0 36 35" fill="none" xmlns="http://www.w3.org/2000/svg">
<g clip-path="url(#clip0_397_32674)">
<path d="M2.70596 3.05642C-0.0750439 5.9449 0.493876 9.0117 0.493876 18.3352C0.493876 26.0765 -0.856876 33.8371 6.2128 35.664C8.42073 36.2321 27.9811 36.2321 30.1862 35.664C33.1297 34.9036 35.5243 32.517 35.8547 28.3546C35.9003 27.774 35.9003 8.91286 35.8547 8.31982C35.509 3.88653 32.7764 1.33052 29.1797 0.813507C28.3523 0.691166 28.1864 0.655916 23.9565 0.648313C8.95439 0.655916 5.666 -0.0124642 2.70596 3.05642Z" fill="url(#paint0_linear_397_32674)"/>
<path d="M8.91927 21.8376L10.2884 15.458C9.86906 15.6292 9.54373 15.886 9.31244 16.2285C9.08116 16.5709 8.96552 16.9975 8.96552 17.5081C8.96552 17.6273 8.97169 17.7252 8.98403 17.8016C8.99944 17.875 9.01486 17.9346 9.03028 17.9805C9.0457 18.0233 9.05958 18.0569 9.07191 18.0814C9.08733 18.1058 9.09504 18.1272 9.09504 18.1456C8.9316 18.1456 8.78667 18.1303 8.66023 18.0997C8.5338 18.0661 8.42741 18.0141 8.34107 17.9438C8.2578 17.8735 8.19305 17.7802 8.14679 17.664C8.10362 17.5478 8.08203 17.4041 8.08203 17.2329C8.08203 17.025 8.12675 16.8201 8.21617 16.6183C8.30869 16.4165 8.43358 16.2254 8.59085 16.045C8.7512 15.8646 8.93777 15.698 9.15055 15.5451C9.36641 15.3923 9.59615 15.2608 9.83976 15.1507C10.0865 15.0376 10.3424 14.9504 10.6076 14.8893C10.8759 14.8251 11.1426 14.793 11.4078 14.793C11.4788 14.793 11.5435 14.7945 11.6021 14.7976C11.6638 14.8006 11.7255 14.8052 11.7871 14.8113L10.2792 21.8376H8.91927Z" fill="white"/>
<path d="M17.0439 20.1544C16.9113 20.5397 16.7679 20.8469 16.6137 21.0763C16.4626 21.3056 16.3084 21.4814 16.1511 21.6037C15.997 21.7229 15.8443 21.8009 15.6932 21.8376C15.5452 21.8743 15.408 21.8926 15.2815 21.8926C15.0718 21.8926 14.8961 21.8636 14.7542 21.8055C14.6123 21.7443 14.4983 21.6648 14.4119 21.567C14.3256 21.4661 14.2623 21.353 14.2223 21.2276C14.1853 21.0992 14.1667 20.9677 14.1667 20.8332C14.1667 20.6742 14.1883 20.4892 14.2315 20.2782C14.2778 20.0642 14.3271 19.8456 14.3795 19.6224C14.432 19.3992 14.4797 19.1836 14.5229 18.9757C14.5692 18.7678 14.5923 18.5889 14.5923 18.4391C14.5923 18.1181 14.4782 17.9575 14.25 17.9575C14.1637 17.9575 14.0835 17.9805 14.0095 18.0263C13.9355 18.0722 13.8676 18.1349 13.806 18.2144C13.7443 18.2908 13.6888 18.3825 13.6394 18.4896C13.5901 18.5935 13.5469 18.7051 13.5099 18.8244L12.867 21.8376H11.5024L12.5062 17.1412H13.8707L13.7689 17.6273C13.8707 17.5142 13.9709 17.424 14.0696 17.3567C14.1714 17.2864 14.2701 17.2329 14.3657 17.1962C14.4612 17.1595 14.5507 17.1351 14.6339 17.1228C14.7203 17.1106 14.8005 17.1045 14.8745 17.1045C15.0256 17.1045 15.1659 17.1244 15.2954 17.1641C15.4249 17.2039 15.5359 17.2665 15.6284 17.3521C15.724 17.4378 15.798 17.5478 15.8505 17.6824C15.9029 17.8169 15.9291 17.9774 15.9291 18.1639C15.9291 18.2893 15.9168 18.4254 15.8921 18.5721C15.8705 18.7158 15.8428 18.8641 15.8088 19.017C15.7749 19.1668 15.7379 19.3166 15.6978 19.4664C15.6608 19.6163 15.6254 19.76 15.5914 19.8976C15.5575 20.0352 15.5282 20.1636 15.5036 20.2828C15.482 20.399 15.4712 20.5014 15.4712 20.5901C15.4712 20.7063 15.4974 20.8011 15.5498 20.8745C15.6053 20.9478 15.7055 20.9845 15.8505 20.9845C15.9522 20.9845 16.0417 20.9647 16.1188 20.9249C16.1959 20.8852 16.2652 20.8286 16.3269 20.7552C16.3886 20.6818 16.4441 20.5947 16.4934 20.4938C16.5459 20.3898 16.5967 20.2767 16.6461 20.1544H17.0439Z" fill="white"/>
<path d="M20.9453 20.1544C20.6986 20.4388 20.4504 20.6742 20.2006 20.8607C19.9539 21.0442 19.7195 21.2001 19.4975 21.3285C19.3988 21.4325 19.2878 21.5211 19.1644 21.5945C19.0442 21.6648 18.9177 21.7229 18.7851 21.7688C18.6556 21.8116 18.523 21.8422 18.3873 21.8605C18.2547 21.8819 18.1283 21.8926 18.008 21.8926C17.7706 21.8926 17.564 21.8575 17.3882 21.7871C17.2155 21.7138 17.0721 21.6205 16.958 21.5074C16.8439 21.3912 16.7607 21.2628 16.7082 21.1221C16.6527 20.9784 16.625 20.8347 16.625 20.691C16.625 20.5809 16.6404 20.48 16.6712 20.3883C16.699 20.2935 16.736 20.2094 16.7823 20.1361C16.8285 20.0627 16.8809 20 16.9395 19.948C17.0012 19.893 17.0644 19.8502 17.1292 19.8196C17.3944 19.3487 17.618 18.884 17.7999 18.4254C17.9818 17.9637 18.1468 17.5004 18.2948 17.0357L19.6964 16.8522C19.7149 17.2589 19.7319 17.612 19.7473 17.9117C19.7658 18.2083 19.7827 18.4666 19.7982 18.6868C19.8136 18.9039 19.8275 19.0888 19.8398 19.2417C19.8521 19.3946 19.8629 19.5307 19.8722 19.6499C19.8845 19.7661 19.8922 19.8731 19.8953 19.9709C19.9015 20.0657 19.9045 20.1651 19.9045 20.2691C19.9045 20.3394 19.9015 20.4036 19.8953 20.4617C19.8922 20.5198 19.883 20.5748 19.8675 20.6268C20.0063 20.5473 20.1312 20.4693 20.2422 20.3929C20.3563 20.3134 20.4581 20.2339 20.5475 20.1544H20.9453ZM17.1292 20.4938C17.1292 20.7139 17.1724 20.879 17.2587 20.9891C17.3481 21.0961 17.4977 21.1496 17.7074 21.1496C17.8122 21.1496 17.914 21.1359 18.0127 21.1084C18.1114 21.0778 18.1992 21.0289 18.2763 20.9616C18.3534 20.8913 18.4151 20.8011 18.4614 20.691C18.5076 20.5809 18.5307 20.4433 18.5307 20.2782C18.5307 20.1987 18.5277 20.1223 18.5215 20.0489C18.5184 19.9725 18.5138 19.893 18.5076 19.8104C18.5014 19.7248 18.4922 19.63 18.4799 19.5261C18.4706 19.4221 18.4583 19.3013 18.4429 19.1638C18.4305 19.0262 18.4166 18.8672 18.4012 18.6868C18.3858 18.5064 18.3688 18.2954 18.3503 18.0539C18.2547 18.3596 18.1422 18.6562 18.0127 18.9436C17.8832 19.231 17.7398 19.5261 17.5825 19.8288C17.6442 19.8624 17.695 19.9052 17.7351 19.9572C17.7783 20.0092 17.7999 20.0749 17.7999 20.1544C17.7999 20.2125 17.7906 20.2691 17.7721 20.3241C17.7536 20.3791 17.7259 20.4296 17.6889 20.4754C17.6519 20.5183 17.6072 20.5534 17.5547 20.5809C17.5054 20.6054 17.4483 20.6176 17.3836 20.6176C17.3312 20.6176 17.2818 20.61 17.2356 20.5947C17.1893 20.5794 17.1538 20.5458 17.1292 20.4938Z" fill="white"/>
<path d="M23.7597 20.1544C23.6703 20.4082 23.5701 20.6283 23.4591 20.8148C23.3511 21.0013 23.237 21.1588 23.1168 21.2872C22.9996 21.4156 22.8778 21.5196 22.7513 21.5991C22.628 21.6786 22.5077 21.7397 22.3905 21.7826C22.2734 21.8254 22.1608 21.8544 22.0529 21.8697C21.948 21.885 21.854 21.8926 21.7707 21.8926C21.6289 21.8926 21.4963 21.8712 21.3729 21.8284C21.2496 21.7856 21.1416 21.7183 21.0491 21.6266C20.9597 21.5349 20.8888 21.4187 20.8363 21.2781C20.7839 21.1374 20.7577 20.9677 20.7577 20.769C20.7577 20.6834 20.7639 20.5901 20.7762 20.4892C20.7885 20.3852 20.807 20.2736 20.8317 20.1544L21.4007 17.5173H21.0861L21.1647 17.1412H21.4747L21.7615 15.8432L23.163 15.6552L22.8392 17.1412H23.4082L23.3342 17.5173H22.7652L22.1593 20.3333C22.1438 20.3852 22.133 20.4372 22.1269 20.4892C22.1238 20.5381 22.1223 20.587 22.1223 20.636C22.1223 20.7674 22.1531 20.8592 22.2148 20.9111C22.2764 20.9601 22.3736 20.9845 22.5062 20.9845C22.5987 20.9845 22.6881 20.9647 22.7745 20.9249C22.8639 20.8821 22.9456 20.824 23.0196 20.7506C23.0936 20.6772 23.1599 20.5901 23.2185 20.4892C23.2771 20.3852 23.3249 20.2736 23.3619 20.1544H23.7597Z" fill="white"/>
<path d="M27.5178 20.3333C27.5023 20.3852 27.4915 20.4372 27.4854 20.4892C27.4792 20.5381 27.4761 20.587 27.4761 20.636C27.4761 20.7674 27.507 20.8592 27.5686 20.9111C27.6334 20.9601 27.7321 20.9845 27.8647 20.9845C27.9078 20.9845 27.9464 20.9815 27.9803 20.9754C28.0142 20.9692 28.0451 20.9585 28.0728 20.9433C28.0081 21.1053 27.9464 21.2459 27.8878 21.3652C27.8292 21.4844 27.7645 21.5838 27.6935 21.6633C27.6226 21.7397 27.5409 21.7978 27.4484 21.8376C27.3589 21.8743 27.2526 21.8926 27.1292 21.8926C26.8671 21.8926 26.6558 21.8177 26.4955 21.6679C26.3351 21.515 26.2365 21.2995 26.1995 21.0212C26.1285 21.1282 26.0453 21.2337 25.9497 21.3377C25.8572 21.4416 25.7523 21.5349 25.6351 21.6174C25.521 21.7 25.3931 21.7673 25.2512 21.8192C25.1094 21.8682 24.9552 21.8926 24.7886 21.8926C24.6252 21.8926 24.4679 21.8666 24.3168 21.8147C24.1657 21.7627 24.0316 21.6771 23.9144 21.5578C23.7972 21.4386 23.7032 21.2826 23.6322 21.09C23.5613 20.8974 23.5258 20.662 23.5258 20.3837C23.5258 20.1697 23.5474 19.9404 23.5906 19.6958C23.6338 19.4512 23.7001 19.2066 23.7895 18.962C23.8789 18.7173 23.99 18.4834 24.1226 18.2602C24.2582 18.034 24.4155 17.8352 24.5944 17.664C24.7763 17.4897 24.9814 17.3521 25.2096 17.2512C25.4378 17.1473 25.6891 17.0953 25.9635 17.0953C26.2318 17.0953 26.4261 17.1412 26.5464 17.2329C26.6697 17.3246 26.7314 17.4378 26.7314 17.5723V17.6411L26.8332 17.1412H28.1977L27.5178 20.3333ZM26.6435 18.0355C26.6435 18.008 26.6373 17.9744 26.625 17.9346C26.6127 17.8918 26.5911 17.8521 26.5603 17.8154C26.5325 17.7756 26.4939 17.7435 26.4446 17.7191C26.3953 17.6915 26.3321 17.6778 26.255 17.6778C26.1224 17.6778 25.9959 17.7206 25.8757 17.8062C25.7585 17.8918 25.6505 18.0065 25.5519 18.1502C25.4532 18.2908 25.3653 18.4513 25.2882 18.6317C25.2111 18.8121 25.1448 18.9986 25.0893 19.1913C25.0369 19.3808 24.9968 19.5689 24.969 19.7554C24.9413 19.9388 24.9274 20.104 24.9274 20.2507C24.9274 20.4311 24.9444 20.5702 24.9783 20.6681C25.0122 20.7659 25.0523 20.8393 25.0986 20.8882C25.1479 20.9341 25.2003 20.9616 25.2558 20.9708C25.3113 20.9799 25.3607 20.9845 25.4038 20.9845C25.4748 20.9845 25.5488 20.9677 25.6259 20.9341C25.7061 20.8974 25.7816 20.8454 25.8525 20.7781C25.9265 20.7078 25.9928 20.6207 26.0514 20.5167C26.1131 20.4128 26.1594 20.292 26.1902 20.1544L26.6435 18.0355Z" fill="white"/>
</g>
<defs>
<linearGradient id="paint0_linear_397_32674" x1="2.90323" y1="33.6244" x2="35.7868" y2="5.15543" gradientUnits="userSpaceOnUse">
<stop stop-color="#FFDD55"/>
<stop offset="0.5" stop-color="#FF543E"/>
<stop offset="1" stop-color="#C837AB"/>
</linearGradient>
<clipPath id="clip0_397_32674">
<rect x="0.804688" y="0.710938" width="34.7883" height="34.0783" rx="17.0392" fill="white"/>
</clipPath>
</defs>
</svg>
