<svg width="38" height="36" viewBox="0 0 38 36" fill="none" xmlns="http://www.w3.org/2000/svg">
<path d="M2.59418 0.66406C3.77895 0.00272154 5.17036 -0.0110563 6.49289 0.00272156C9.89566 0.0440552 13.2846 0.20939 16.6874 0.429836C20.1039 0.677838 23.5343 0.92584 26.9095 1.49073C28.5902 1.80762 30.2709 2.11074 31.9516 2.42763C33.3017 2.73074 34.7482 3.06141 35.7539 4.08098C36.7596 5.11432 37.0351 6.61611 37.1315 7.9939C37.2969 10.6255 37.1453 13.257 36.9662 15.8748C36.732 18.906 36.3738 21.9371 35.8366 24.9407C35.6575 25.8363 35.4784 26.718 35.2029 27.5861C35.7815 29.2807 36.3187 30.9892 36.5943 32.7665C36.6632 33.3728 36.7734 34.0203 36.5667 34.6128C36.4841 34.9021 36.1534 35.0812 35.8641 34.971C35.1064 34.7506 34.4451 34.2959 33.8114 33.8412C32.2547 32.6976 30.8633 31.3474 29.527 29.9558C26.2758 30.6999 23.0245 31.4439 19.7595 32.119C17.7344 32.5323 15.6955 32.9594 13.6291 33.0696C12.2514 33.1385 10.8049 32.8768 9.63391 32.1052C8.5318 31.375 7.71899 30.2727 7.12661 29.1016C6.05205 26.9523 5.22547 24.7065 4.41266 22.4469C2.9937 18.3411 1.69872 14.1664 0.665489 9.9228C0.238422 7.98012 -0.271304 5.98232 0.16954 3.99831C0.458844 2.60674 1.31298 1.31162 2.59418 0.66406ZM9.44104 6.561C11.5488 10.5979 13.6979 14.6348 15.7782 18.6855C15.8333 21.0691 15.7919 23.4665 15.8057 25.85C18.0375 25.85 20.2555 25.85 22.4873 25.85C22.4873 23.5629 22.4873 21.2896 22.4873 19.0162C22.4459 18.6442 22.6939 18.3411 22.8454 18.0242C24.8568 14.2077 26.8544 10.3912 28.8519 6.561C26.9095 6.561 24.9808 6.561 23.0383 6.561C21.7433 9.31657 20.4484 12.0584 19.1534 14.8139C17.8584 12.0584 16.5634 9.31657 15.2684 6.561C13.3122 6.54722 11.3697 6.561 9.44104 6.561Z" fill="#FF3B3B"/>
</svg>
