<svg width="555" height="78" viewBox="0 0 555 78" fill="none" xmlns="http://www.w3.org/2000/svg">
<g clip-path="url(#clip0_397_31632)">
<path d="M459.598 28.5H0.898438V49.5H459.598V28.5Z" fill="#F5F5F5"/>
<path d="M495.098 78H491.098C469.598 78 452.098 60.5 452.098 39C452.098 17.5 469.598 0 491.098 0H495.098V78Z" fill="#F5F5F5"/>
<path d="M546.098 21H509.098C504.698 21 501.098 17.4 501.098 13C501.098 8.6 504.698 5 509.098 5H546.098C550.498 5 554.098 8.6 554.098 13C554.098 17.4 550.498 21 546.098 21Z" fill="#F5F5F5"/>
<path d="M546.098 71H509.098C504.698 71 501.098 67.4 501.098 63C501.098 58.6 504.698 55 509.098 55H546.098C550.498 55 554.098 58.6 554.098 63C554.098 67.4 550.498 71 546.098 71Z" fill="#F5F5F5"/>
<path d="M239.297 26.1001L226.597 35.2001L233.897 38.8001L224.097 42.5001L233.897 45.7001L220.297 51.5001H334.897L329.397 46.5001L334.897 41.7001L329.397 38.8001L334.897 33.6001L323.097 30.4001L334.897 26.1001H239.297Z" fill="white"/>
<path d="M237.399 21.0002L230.199 13.0002L233.899 8.7002L237.399 21.0002Z" fill="#E85454"/>
<path d="M261.797 32.7002L269.097 8.7002L279.397 14.9002L261.797 32.7002Z" fill="#E85454"/>
<path d="M253.898 46.7002L265.998 66.1002L259.898 71.0002L253.898 46.7002Z" fill="#E85454"/>
<path d="M313.3 29.3999L292.5 16.9999L298.6 9.3999L313.3 29.3999Z" fill="#E85454"/>
<path d="M287.598 72.0001L307.498 50.1001L296.898 73.7001L287.598 72.0001Z" fill="#E85454"/>
<path d="M304.298 38.3999L297.698 49.4999L294.098 43.3999L304.298 38.3999Z" fill="#E85454"/>
<path d="M278.3 58.4999L268 46.8999L282.1 51.8999L278.3 58.4999Z" fill="#E85454"/>
<path d="M323.098 46.7002L320.098 58.9002H326.198L323.098 46.7002Z" fill="#E85454"/>
<path d="M237.398 49.5L247.498 63L237.398 63.8V49.5Z" fill="#E85454"/>
<path d="M243.8 30.7998L250.8 32.6998L243.8 34.5998L241.9 41.5998L240 34.5998L233 32.6998L240 30.7998L241.9 23.7998L243.8 30.7998Z" fill="#E85454"/>
<path d="M326.298 68.3999L331.298 69.6999L326.298 71.0999L324.998 75.9999L323.598 71.0999L318.598 69.6999L323.598 68.3999L324.998 63.3999L326.298 68.3999Z" fill="#E85454"/>
<path d="M289.598 24.7002L294.598 26.1002L289.598 27.4002L288.198 32.4002L286.898 27.4002L281.898 26.1002L286.898 24.7002L288.198 19.7002L289.598 24.7002Z" fill="#E85454"/>
</g>
<defs>
<clipPath id="clip0_397_31632">
<rect width="553.2" height="78" fill="white" transform="translate(0.898438)"/>
</clipPath>
</defs>
</svg>
