<svg width="36" height="36" viewBox="0 0 36 36" fill="none" xmlns="http://www.w3.org/2000/svg">
<rect width="35.4983" height="35.4983" rx="17.7491" fill="#01A7EE"/>
<path d="M23.371 19.1904C23.0948 18.841 23.1746 18.6879 23.371 18.3785C23.3743 18.3751 25.6473 15.2339 25.8836 14.1691C26.0001 13.7797 25.8836 13.4969 25.3212 13.4969H23.4575C22.9816 13.4969 22.7653 13.7431 22.6488 14.016C22.6488 14.016 21.7003 16.2854 20.3592 17.7562C19.9265 18.1821 19.7269 18.3186 19.4906 18.3186C19.3741 18.3186 19.1944 18.1821 19.1944 17.7928V14.1624C19.1944 13.6965 19.0613 13.4902 18.6686 13.4902H15.74C15.4438 13.4902 15.2641 13.7065 15.2641 13.9095C15.2641 14.3521 15.9363 14.4519 16.0062 15.6964V18.3918C16.0062 18.9808 15.8997 19.0906 15.6601 19.0906C15.0278 19.0906 13.4903 16.8112 12.5784 14.2023C12.392 13.6965 12.2123 13.4902 11.7331 13.4902H9.86944C9.33696 13.4902 9.23047 13.7365 9.23047 14.0093C9.23047 14.4918 9.86278 16.901 12.1757 20.0822C13.7166 22.2518 15.8864 23.4297 17.8599 23.4297C19.0446 23.4297 19.1911 23.1669 19.1911 22.7176C19.1911 20.6446 19.0846 20.4482 19.6769 20.4482C19.9532 20.4482 20.4257 20.5847 21.5339 21.6328C22.7986 22.874 23.0082 23.4297 23.7171 23.4297H25.5808C26.1132 23.4297 26.3795 23.1669 26.2264 22.6544C25.8703 21.5696 23.4775 19.3368 23.371 19.1904Z" fill="white"/>
</svg>
