<svg width="122" height="35" viewBox="0 0 122 35" fill="none" xmlns="http://www.w3.org/2000/svg">
<g clip-path="url(#clip0_397_32131)">
<path d="M115.241 30.4765C117.618 30.4765 119.302 30.0473 120.557 29.1227V24.9293C119.269 25.8208 117.717 26.3822 115.538 26.3822C111.873 26.3822 110.354 23.5425 110.354 19.052C110.354 14.3303 112.203 11.9199 115.571 11.9199C117.552 11.9199 119.5 12.6133 120.524 13.2737V8.91519C119.434 8.32085 117.552 7.8916 114.977 7.8916C108.406 7.8916 105.005 12.6133 105.005 19.2171C105.038 26.4482 108.373 30.4765 115.241 30.4765ZM83.1134 28.5614V24.368C81.5285 25.4576 78.8209 26.4152 76.3445 26.4152C72.5803 26.4152 71.1605 24.6322 70.9294 21.0001H83.3445V18.2925C83.3445 10.7312 80.0096 7.8916 74.8917 7.8916C68.6181 7.8916 65.6464 12.6793 65.6464 19.2501C65.6464 26.8114 69.3775 30.4765 75.9152 30.4765C79.1841 30.4765 81.5945 29.585 83.1134 28.5614ZM35.9954 8.28783V16.8727H29.1275V8.28783H23.9766V30.0473H29.1275V20.9671H35.9954V30.0473H41.1464V8.28783H35.9954ZM64.3586 25.9529H62.0803V8.28783H47.0898V10.1369C47.0898 15.4529 46.7596 22.3208 44.9435 25.9529H43.2926V35.0001H48.0473V30.0473H59.5709V35.0001H64.3256V25.9529H64.3586ZM99.5237 30.0473H105.368L97.1133 18.3256L104.378 8.28783H99.1935L91.9294 18.3256V8.28783H86.7785V30.0473H91.9294V19.3491L99.5237 30.0473ZM74.7596 11.9199C77.302 11.9199 78.0945 14.0331 78.0945 16.7737V17.2029H70.9294C71.0615 13.7359 72.3162 11.9199 74.7596 11.9199ZM56.9294 25.9529H49.6652C51.0851 22.6841 51.4813 16.7407 51.4813 12.9765V12.3161H56.9294V25.9529Z" fill="black"/>
<path d="M19.9764 30.0472H14.7264V4.06132H12.3821C8.08962 4.06132 5.84434 6.20755 5.84434 9.41038C5.84434 13.0425 7.39623 14.7264 10.5991 16.8726L13.2406 18.6557L5.64623 30.0472H0L6.83491 19.8774C2.90566 17.0708 0.693396 14.3302 0.693396 9.70755C0.693396 3.92925 4.7217 0 12.3491 0H19.9434L19.9764 30.0472Z" fill="#FC3F1D"/>
</g>
<defs>
<clipPath id="clip0_397_32131">
<rect width="121.179" height="35" fill="white"/>
</clipPath>
</defs>
</svg>
