<svg width="37" height="36" viewBox="0 0 37 36" fill="none" xmlns="http://www.w3.org/2000/svg">
<circle cx="18.8047" cy="18" r="18" fill="#FF0000"/>
<path fill-rule="evenodd" clip-rule="evenodd" d="M26.8257 15.3486C26.719 13.5892 25.4333 12.169 23.7804 11.9819C22.0659 11.7982 20.2436 11.6992 18.3547 11.6992C16.4657 11.6992 14.6445 11.7982 12.93 11.9809C11.2771 12.169 9.99143 13.5892 9.88472 15.3486C9.83239 16.2142 9.80469 17.1005 9.80469 17.9987C9.80469 18.8969 9.83239 19.7831 9.88472 20.6498C9.99143 22.4093 11.2781 23.8295 12.93 24.0165C14.6445 24.2003 16.4668 24.2992 18.3547 24.2992C20.2426 24.2992 22.0659 24.2003 23.7794 24.0176C25.4323 23.8305 26.7179 22.4093 26.8247 20.6498C26.877 19.7831 26.9047 18.898 26.9047 17.9987C26.9047 17.0994 26.878 16.2142 26.8257 15.3486ZM16.7695 20.7129V15.2855L20.967 17.9998L16.7695 20.7129Z" fill="white"/>
</svg>
