<svg width="145" height="36" viewBox="0 0 145 36" fill="none" xmlns="http://www.w3.org/2000/svg">
<path d="M1.26452 1.15885H31.2516C31.95 1.15885 32.5161 1.72767 32.5161 2.42936V8.35425C32.5161 9.14346 32.1753 9.89071 31.5819 10.4078L14.8129 24.5027H31.2516C31.95 24.5027 32.5161 25.0612 32.5161 25.7628V32.5648C32.5161 33.2665 31.95 33.8353 31.2516 33.8353H1.26452C0.566143 33.8353 0 33.2665 0 32.5648V26.6496C0 25.8604 0.34085 25.1131 0.934232 24.596L17.7032 10.5012H1.26452C0.566143 10.5012 0 9.91936 0 9.21768V2.42936C0 1.72767 0.566143 1.15885 1.26452 1.15885ZM53.4194 0C56.8867 0 59.9779 0.78341 62.5586 2.21504C65.1392 3.64667 67.2092 5.72652 68.6341 8.3194C70.059 10.9123 70.8387 14.0182 70.8387 17.5019C70.8387 20.9857 70.059 24.0916 68.6341 26.6845C67.2092 29.2773 65.1392 31.3572 62.5586 32.7888C59.9779 34.2204 56.8867 35.0039 53.4194 35.0039C49.952 35.0039 46.8608 34.2204 44.2801 32.7888C41.6995 31.3572 39.6295 29.2773 38.2046 26.6845C36.7797 24.0916 36 20.9857 36 17.5019C36 14.0182 36.7797 10.9123 38.2046 8.3194C39.6295 5.72652 41.6995 3.64667 44.2801 2.21504C46.8608 0.78341 49.952 0 53.4194 0ZM53.4194 9.33436C51.7608 9.33436 50.3047 9.68638 49.1004 10.3409C47.8961 10.9954 46.9436 11.9525 46.2921 13.1625C45.6407 14.3725 45.2903 15.8355 45.2903 17.5019C45.2903 19.1684 45.6407 20.6314 46.2921 21.8414C46.9436 23.0514 47.8961 24.0084 49.1004 24.663C50.3047 25.3175 51.7608 25.6695 53.4194 25.6695C55.078 25.6695 56.534 25.3175 57.7383 24.663C58.9426 24.0084 59.8952 23.0514 60.5466 21.8414C61.198 20.6314 61.5484 19.1684 61.5484 17.5019C61.5484 15.8355 61.198 14.3725 60.5466 13.1625C59.8952 11.9525 58.9426 10.9954 57.7383 10.3409C56.534 9.68638 55.078 9.33436 53.4194 9.33436ZM90.5806 0C94.048 0 97.1392 0.78341 99.7198 2.21504C102.3 3.64667 104.371 5.72652 105.795 8.3194C107.22 10.9123 108 14.0182 108 17.5019C108 20.9857 107.22 24.0916 105.795 26.6845C104.371 29.2773 102.3 31.3572 99.7198 32.7888C97.1392 34.2204 94.048 35.0039 90.5806 35.0039C87.1133 35.0039 84.0221 34.2204 81.4414 32.7888C78.8608 31.3572 76.7908 29.2773 75.3659 26.6845C73.941 24.0916 73.1613 20.9857 73.1613 17.5019C73.1613 14.0182 73.941 10.9123 75.3659 8.3194C76.7908 5.72652 78.8608 3.64667 81.4414 2.21504C84.0221 0.78341 87.1133 0 90.5806 0ZM90.5806 9.33436C88.922 9.33436 87.466 9.68638 86.2617 10.3409C85.0574 10.9954 84.1048 11.9525 83.4534 13.1625C82.802 14.3725 82.4516 15.8355 82.4516 17.5019C82.4516 19.1684 82.802 20.6314 83.4534 21.8414C84.1048 23.0514 85.0574 24.0084 86.2617 24.663C87.466 25.3175 88.922 25.6695 90.5806 25.6695C92.2392 25.6695 93.6953 25.3175 94.8996 24.663C96.1039 24.0084 97.0564 23.0514 97.7079 21.8414C98.3593 20.6314 98.7097 19.1684 98.7097 17.5019C98.7097 15.8355 98.3593 14.3725 97.7079 13.1625C97.0564 11.9525 96.1039 10.9954 94.8996 10.3409C93.6953 9.68638 92.2392 9.33436 90.5806 9.33436ZM144.004 2.4334V32.5643C144.004 33.266 143.438 33.8349 142.739 33.8349H136.846C136.061 33.8349 135.317 33.4924 134.803 32.8963L120.774 16.0498V32.5643C120.774 33.266 120.195 33.8349 119.497 33.8349H112.744C112.046 33.8349 111.48 33.266 111.48 32.5643V2.4334C111.48 1.73168 112.046 1.16282 112.744 1.16282H118.637C119.423 1.16282 120.167 1.50538 120.681 2.10171L134.71 18.954V2.4334C134.71 1.73168 135.265 1.16282 135.964 1.16282H142.739C143.438 1.16282 144.004 1.73168 144.004 2.4334Z" fill="url(#paint0_linear_397_32101)"/>
<defs>
<linearGradient id="paint0_linear_397_32101" x1="11137.7" y1="1750.19" x2="3140.91" y2="1750.19" gradientUnits="userSpaceOnUse">
<stop stop-color="#6339F5"/>
<stop offset="1" stop-color="#3D3F55"/>
</linearGradient>
</defs>
</svg>
